<?xml version="1.0" encoding="UTF-8"?>
<svg width="25px" height="27px" viewBox="0 0 25 27" version="1.1" xmlns="http://www.w3.org/2000/svg" xmlns:xlink="http://www.w3.org/1999/xlink">
    <!-- Generator: sketchtool 63.1 (101010) - https://sketch.com -->
    <title>87A12B24-B6F8-4F00-8F65-D2523DC02A1F</title>
    <desc>Created with sketchtool.</desc>
    <g id="Desktop" stroke="none" stroke-width="1" fill="none" fill-rule="evenodd">
        <g id="Desktop-HD-Copy-4-(1)" transform="translate(-1637.000000, -17.000000)" fill="#676767" fill-rule="nonzero">
            <g id="dashboard_view">
                <g id="header">
                    <g id="Group">
                        <g id="location-(1)" transform="translate(1637.500000, 17.000000)">
                            <path d="M14.5655172,4.85517241 C14.5655172,3.39257004 13.3798438,2.20689655 11.9172414,2.20689655 C10.454639,2.20689655 9.26896552,3.39257004 9.26896552,4.85517241 C9.26896552,6.31777479 10.454639,7.50344828 11.9172414,7.50344828 C13.3791631,7.50180638 14.5638753,6.31709415 14.5655172,4.85517241 Z M10.1517241,4.85517241 C10.1517241,3.88010417 10.9421731,3.08965517 11.9172414,3.08965517 C12.8923096,3.08965517 13.6827586,3.88010417 13.6827586,4.85517241 C13.6827586,5.83024066 12.8923096,6.62068966 11.9172414,6.62068966 C10.9426269,6.61959506 10.1528187,5.82978691 10.1517241,4.85517241 L10.1517241,4.85517241 Z" id="Shape"></path>
                            <path d="M11.6641103,12.2788414 C11.8160934,12.3852399 12.0183893,12.3852399 12.1703724,12.2788414 C13.0086225,11.6613131 13.7756147,10.952499 14.4572138,10.1654621 C15.9718069,8.42366897 16.7724138,6.58758621 16.7724138,4.85517241 C16.7724138,2.17373473 14.5986791,0 11.9172414,0 C9.2358037,0 7.06206897,2.17373473 7.06206897,4.85517241 C7.06206897,6.58758621 7.86267586,8.42366897 9.37726897,10.1654621 C10.0588681,10.952499 10.8258603,11.6613131 11.6641103,12.2788414 L11.6641103,12.2788414 Z M11.9172414,0.882758621 C14.110124,0.88522146 15.8871923,2.66228981 15.8896552,4.85517241 C15.8896552,8.01329655 12.8285241,10.6497103 11.9172414,11.3645793 C11.0045793,10.6505931 7.94482759,8.01936552 7.94482759,4.85517241 C7.94729043,2.66228981 9.72435877,0.88522146 11.9172414,0.882758621 Z" id="Shape"></path>
                            <polygon id="Path" transform="translate(6.625143, 22.642512) rotate(-72.905694) translate(-6.625143, -22.642512) " points="6.18368155 22.1806332 7.06660435 22.1806332 7.06660435 23.1043912 6.18368155 23.1043912"></polygon>
                            <polygon id="Path" transform="translate(8.390435, 23.183822) rotate(-72.905694) translate(-8.390435, -23.183822) " points="7.94894626 22.7219434 8.83192425 22.7219434 8.83192425 23.6457013 7.94894626 23.6457013"></polygon>
                            <polygon id="Path" transform="translate(10.156261, 23.728512) rotate(-72.905694) translate(-10.156261, -23.728512) " points="9.71479924 23.2666328 10.597722 23.2666328 10.597722 24.1903908 9.71479924 24.1903908"></polygon>
                            <path d="M23.5229241,10.1712552 L16.9022345,8.13412414 L16.6425931,8.97787586 L21.8924138,10.5931034 L11.9172414,13.6623448 L1.94206897,10.5931034 L7.19172414,8.97787586 L6.93208276,8.13412414 L0.311393103,10.1712552 C0.12627093,10.2283037 0,10.3993904 0,10.5931034 L0,22.5103448 C0,22.704103 0.126370921,22.875204 0.311558621,22.9321931 L11.7874207,26.4632276 C11.8720104,26.489259 11.9624724,26.489259 12.0470621,26.4632276 L23.5229241,22.9321931 C23.7081118,22.875204 23.8344828,22.704103 23.8344828,22.5103448 L23.8344828,10.5931034 C23.8344828,10.3993452 23.7081118,10.2282443 23.5229241,10.1712552 L23.5229241,10.1712552 Z M0.882758621,11.190731 L11.4758621,14.4501517 L11.4758621,25.4437517 L0.882758621,22.1843862 L0.882758621,11.190731 Z M12.3586207,25.4437517 L12.3586207,14.4501517 L22.9517241,11.190731 L22.9517241,22.1843862 L12.3586207,25.4437517 Z" id="Shape"></path>
                            <polygon id="Path" transform="translate(18.099485, 22.380708) rotate(-17.094306) translate(-18.099485, -22.380708) " points="17.6376064 21.9392464 18.5613643 21.9392464 18.5613643 22.8221692 17.6376064 22.8221692"></polygon>
                            <polygon id="Path" transform="translate(19.864529, 21.839119) rotate(-17.094306) translate(-19.864529, -21.839119) " points="19.4026504 21.3976299 20.3264084 21.3976299 20.3264084 22.2806079 19.4026504 22.2806079"></polygon>
                            <polygon id="Path" transform="translate(21.631323, 21.294222) rotate(-17.094306) translate(-21.631323, -21.294222) " points="21.1694437 20.8527607 22.0932017 20.8527607 22.0932017 21.7356835 21.1694437 21.7356835"></polygon>
                            <path d="M8.3862069,17.8249379 C8.62997396,17.8249379 8.82758621,17.6273257 8.82758621,17.3835586 L8.82758621,15.1766621 C8.82758621,14.9829039 8.70121529,14.8118029 8.51602759,14.7548138 L4.10223448,13.3966897 C3.96834925,13.3554882 3.8228549,13.3802868 3.71017759,13.4635132 C3.59750029,13.5467396 3.53103448,13.6785116 3.53103448,13.8185931 L3.53103448,16.0254897 C3.53103448,16.2192479 3.6574054,16.3903488 3.8425931,16.4473379 L8.25638621,17.8054621 C8.29844888,17.8183808 8.34220507,17.8249379 8.3862069,17.8249379 L8.3862069,17.8249379 Z M7.94482759,16.785931 L4.4137931,15.699531 L4.4137931,14.4162207 L7.94482759,15.5026207 L7.94482759,16.785931 Z" id="Shape"></path>
                            <path d="M20.3034483,16.0254897 L20.3034483,13.8185931 C20.3034483,13.6785116 20.2369825,13.5467396 20.1243052,13.4635132 C20.0116279,13.3802868 19.8661335,13.3554882 19.7322483,13.3966897 L15.3184552,14.7548138 C15.1332675,14.8118029 15.0068965,14.9829039 15.0068965,15.1766621 L15.0068965,17.3835586 C15.0068965,17.5236401 15.0733624,17.6554121 15.1860397,17.7386385 C15.298717,17.821865 15.4442113,17.8466635 15.5780966,17.8054621 L19.9918897,16.4473379 C20.1770774,16.3903488 20.3034483,16.2192479 20.3034483,16.0254897 L20.3034483,16.0254897 Z M19.4206897,15.699531 L15.8896552,16.785931 L15.8896552,15.5026207 L19.4206897,14.4162207 L19.4206897,15.699531 Z" id="Shape"></path>
                        </g>
                    </g>
                </g>
            </g>
        </g>
    </g>
</svg>